<svg width="12" height="8" viewBox="0 0 12 8" fill="none" xmlns="http://www.w3.org/2000/svg">
<path d="M5.54073 7.0166C5.63448 7.15723 5.77511 7.2041 5.93917 7.2041C6.07979 7.2041 6.22042 7.15723 6.33761 7.0166L10.8845 2.46973C10.9782 2.37598 11.0485 2.23535 11.0485 2.07129C11.0485 1.93066 10.9782 1.79004 10.8845 1.67285L10.3689 1.15723C10.2517 1.06348 10.111 0.993164 9.97042 0.993164C9.80636 0.993164 9.66573 1.04004 9.57198 1.13379L5.93917 4.7666L2.30636 1.13379C2.18917 1.04004 2.04854 0.993164 1.90792 0.993164C1.74386 0.993164 1.60323 1.06348 1.50948 1.15723L0.993857 1.67285C0.87667 1.79004 0.829795 1.93066 0.829795 2.07129C0.829795 2.23535 0.87667 2.37598 0.993857 2.46973L5.54073 7.0166Z" fill="white"/>
</svg>
